<?xml version="1.0" encoding="utf-8"?>
<!-- Generator: Adobe Illustrator 17.0.0, SVG Export Plug-In . SVG Version: 6.00 Build 0)  -->
<!DOCTYPE svg PUBLIC "-//W3C//DTD SVG 1.1//EN" "http://www.w3.org/Graphics/SVG/1.1/DTD/svg11.dtd">
<svg version="1.1" id="Layer_1" xmlns="http://www.w3.org/2000/svg" xmlns:xlink="http://www.w3.org/1999/xlink" x="0px" y="0px"
	 width="1280px" height="800px" viewBox="0 0 1280 800" enable-background="new 0 0 1280 800" xml:space="preserve">

    <style type="text/css" >
	    rect {
	        fill: black;
	    }
	 
	    rect:hover {
	        fill: teal;
	        transition-property: fill;
	        transition-duration: 3s;
	    }

    </style>
<g clip-path="url(#cut-off-bottom)">
	<defs>
		<path id="SVGID_1_" d="M938.763,471.559c-8.308,0-33.176-1.744-67.595-4.157c-66.866-4.689-167.915-11.775-232.833-11.775
			c-65.378,0-166.627,7.146-233.625,11.875c-33.374,2.355-57.486,4.058-65.339,4.058c-12.043,0-34.46,0-54.129-8.742
			c-24.417-10.854-36.798-31.652-36.798-61.819c0-30.312,12.07-51.584,35.874-63.227c18.717-9.154,40.384-10.212,55.054-10.212
			c8.67,0,32.406,2.029,65.257,4.838c65.069,5.564,163.402,13.972,233.708,13.972c69.407,0,166.859-8.279,231.346-13.757
			c34.536-2.934,59.488-5.054,69.082-5.054c15.39,0,38.062,1.058,57.188,10.205c24.213,11.58,36.49,32.855,36.49,63.234
			c0,30.188-12.721,50.99-37.808,61.827C974.414,471.559,951.222,471.559,938.763,471.559z M638.334,451.626
			c65.058,0,166.192,7.092,233.114,11.785c33.046,2.317,59.147,4.147,67.314,4.147c24.527,0,89.679,0,89.679-66.562
			c0-69.439-67.498-69.439-89.679-69.439c-9.424,0-35.602,2.224-68.744,5.039c-64.554,5.484-162.107,13.771-231.684,13.771
			c-70.477,0-168.913-8.417-234.049-13.986c-31.52-2.695-56.416-4.824-64.916-4.824c-14.272,0-35.324,1.017-53.296,9.806
			c-22.316,10.914-33.631,30.978-33.631,59.633c0,66.562,63.153,66.562,86.928,66.562c7.712,0,31.766-1.698,65.058-4.048
			C471.482,458.778,572.815,451.626,638.334,451.626z"/>
	</defs>
	<use xlink:href="#SVGID_1_"  overflow="visible"/>
	<clipPath id="SVGID_2_">
		<use xlink:href="#SVGID_1_"  overflow="visible"/>
	</clipPath>
	<g clip-path="url(#SVGID_2_)">
		<path d="M938.763,471.559c-8.308,0-33.176-1.744-67.595-4.157c-66.866-4.689-167.915-11.775-232.833-11.775
			c-65.378,0-166.627,7.146-233.625,11.875c-33.374,2.355-57.486,4.058-65.339,4.058c-12.043,0-34.46,0-54.129-8.742
			c-24.417-10.854-36.798-31.652-36.798-61.819c0-30.312,12.07-51.584,35.874-63.227c18.717-9.154,40.384-10.212,55.054-10.212
			c8.67,0,32.406,2.029,65.257,4.838c65.069,5.564,163.402,13.972,233.708,13.972c69.407,0,166.859-8.279,231.346-13.757
			c34.536-2.934,59.488-5.054,69.082-5.054c15.39,0,38.062,1.058,57.188,10.205c24.214,11.58,36.491,32.855,36.491,63.234
			c0,30.188-12.721,50.99-37.808,61.827C974.414,471.559,951.222,471.559,938.763,471.559z M638.334,451.626
			c65.058,0,166.192,7.092,233.114,11.785c33.046,2.317,59.147,4.147,67.314,4.147c24.527,0,89.679,0,89.679-66.562
			c0-69.439-67.498-69.439-89.679-69.439c-9.424,0-35.602,2.224-68.744,5.039c-64.554,5.484-162.107,13.771-231.684,13.771
			c-70.477,0-168.913-8.417-234.049-13.986c-31.52-2.695-56.416-4.824-64.916-4.824c-14.272,0-35.324,1.017-53.296,9.806
			c-22.316,10.914-33.631,30.978-33.631,59.633c0,66.562,63.153,66.562,86.928,66.562c7.712,0,31.766-1.698,65.058-4.048
			C471.482,458.778,572.815,451.626,638.334,451.626z"/>
	</g>
</g>
</svg>
